<svg width="143" height="131" viewBox="0 0 143 131" fill="none" xmlns="http://www.w3.org/2000/svg">
<path fill-rule="evenodd" clip-rule="evenodd" d="M64.9237 0.817269C64.539 1.30755 63.8409 1.55326 63.3727 1.36349C62.905 1.17372 62.7189 1.2268 62.9596 1.48116C63.8246 2.39596 65.8018 2.03315 65.8018 0.959735C65.8018 -0.2948 65.7975 -0.295373 64.9237 0.817269ZM58.5264 4.30401C57.5484 5.11902 56.8859 6.02171 57.054 6.31011C57.2226 6.59793 56.9798 6.67926 56.5137 6.49065C55.7578 6.18379 55.6667 8.42003 55.6667 27.3026C55.6667 46.5354 55.7447 48.3765 56.5241 47.5523C56.9961 47.0539 57.5512 46.6461 57.758 46.6461C57.9643 46.6461 58.7453 46.0624 59.4924 45.3483C60.5932 44.2974 72.5561 34.6205 74.3598 33.3221C74.9901 32.8682 71.5601 27.4999 70.9112 27.9239C70.6383 28.1027 70.5488 27.8794 70.7125 27.4278C71.0803 26.4144 69.4404 24.575 68.6365 25.0999C68.2812 25.3317 68.2097 25.2106 68.4547 24.7918C68.6768 24.4117 68.5513 23.7092 68.1764 23.2316C67.6088 22.5089 67.6918 22.3076 68.6687 22.0376C69.3154 21.8588 69.7345 21.526 69.6013 21.2976C69.4676 21.0692 69.705 20.8823 70.1291 20.8823C70.5531 20.8823 70.7671 21.109 70.605 21.3864C70.4429 21.6633 70.8839 21.7383 71.5841 21.5531C72.2848 21.3674 73.4102 21.1719 74.0858 21.1188C75.7078 20.9902 75.6385 20.5443 73.6197 18.1148C72.6881 16.9936 72.1227 16.0759 72.3628 16.0759C72.6024 16.0759 71.9852 15.1888 70.9908 14.1044C69.9965 13.0194 68.8973 11.5272 68.5486 10.7878C68.1993 10.0478 67.2323 9.0972 66.3989 8.67498C65.5655 8.25277 64.6688 7.3097 64.4063 6.57947C64.0156 5.49451 61.2066 2.79164 60.4944 2.81587C60.3907 2.81933 59.5049 3.48899 58.5264 4.30401ZM62.5868 5.02905C63.2412 5.393 63.8551 6.27435 63.9512 6.98785C64.0647 7.82882 64.8446 8.64152 66.1724 9.3008C67.5013 9.96066 68.219 10.7088 68.219 11.4332C68.219 12.0475 68.7647 12.9537 69.4322 13.4474C70.0991 13.9411 70.3829 14.3455 70.062 14.3455C69.3656 14.3455 67.9663 12.7062 67.5182 11.3663C67.3419 10.8385 66.5239 10.0599 65.7003 9.63593C64.8768 9.21256 63.8137 8.11837 63.3378 7.20472C62.565 5.7212 61.1973 5.04346 61.527 6.30722C61.5985 6.5812 61.271 6.64926 60.7989 6.45777C60.1216 6.18321 60.0911 6.0119 60.6532 5.64448C61.0451 5.38896 61.1897 4.99385 60.9752 4.76717C60.7607 4.54049 60.0927 4.82601 59.4902 5.40165C58.8883 5.97787 58.3954 6.16418 58.3954 5.8158C58.3954 4.95002 60.7241 3.28653 61.0974 3.88583C61.2623 4.15058 61.9324 4.66509 62.5868 5.02905ZM38.1639 19.7749C34.0898 22.9749 29.1268 26.8908 27.1348 28.477L23.5121 31.361L23.4897 52.6287C23.4717 69.5508 23.6065 73.7862 24.1495 73.3553C24.525 73.0571 29.2523 69.327 34.6552 65.0662C40.0582 60.8054 44.7975 57.0002 45.1866 56.6109C45.7427 56.0543 45.8868 51.4243 45.8568 35.015C45.8355 23.5264 45.7624 14.0888 45.6941 14.0415C45.6259 13.9948 42.2374 16.5742 38.1639 19.7749ZM97.9401 40.9168C97.742 41.2548 97.6972 41.6557 97.8402 41.8068C97.9832 41.9579 98.2457 41.6811 98.4236 41.1914C98.7925 40.175 98.4782 39.9962 97.9401 40.9168ZM98.5082 43.1853C98.3226 43.5026 98.4312 43.7621 98.7489 43.7621C99.0665 43.7621 99.3268 43.5026 99.3268 43.1853C99.3268 42.8681 99.2187 42.6085 99.0861 42.6085C98.9535 42.6085 98.6937 42.8681 98.5082 43.1853ZM96.27 47.028C96.4496 47.9283 96.3437 49.0543 96.0348 49.5301C95.6146 50.1779 95.5611 49.9967 95.822 48.8091C96.0239 47.8891 95.941 47.2229 95.6239 47.2229C94.8647 47.2229 94.4347 48.6188 94.7731 49.9864C94.9286 50.6156 94.7916 51.3026 94.4691 51.5137C94.0991 51.7554 93.9954 51.5131 94.1897 50.8579C94.4756 49.8918 94.4522 49.8935 93.8546 50.8821C93.5009 51.467 93.1636 52.2457 93.1052 52.6125C93.0463 52.9794 92.6708 53.9103 92.2702 54.6809C91.6497 55.876 91.4527 55.9562 90.9321 55.2237C90.5964 54.7507 89.7079 53.5452 88.9575 52.545L87.5931 50.7252L87.4076 74.8636C87.281 91.2931 87.4049 99.1214 87.7945 99.3764C88.1094 99.5823 93.2984 99.5713 99.3252 99.3522L110.284 98.9542L110.126 80.1056L109.969 61.257L108.139 58.9982C107.133 57.7564 105.659 56.3323 104.865 55.8339C104.07 55.3356 103.092 54.216 102.691 53.3456C102.29 52.4752 101.553 51.6106 101.054 51.4243C99.4163 50.8129 98.2129 49.3594 98.5142 48.3558C98.7068 47.7155 98.3112 47.0303 97.3768 46.3831L95.9448 45.3916L96.27 47.028ZM98.8684 48.9533C99.0141 49.4292 99.9719 50.2436 100.997 50.7627C102.099 51.3216 102.984 52.2641 103.162 53.0699C103.339 53.8642 104.212 54.8084 105.256 55.3327C106.241 55.8276 107.271 56.6063 107.545 57.0631C107.818 57.5199 108.046 57.6093 108.051 57.2621C108.06 56.5151 106.525 55.0368 105.24 54.5575C104.741 54.3712 104.004 53.4956 103.603 52.6119C103.202 51.7289 102.348 50.7287 101.705 50.3895C101.061 50.051 100.1 49.394 99.5691 48.9308C98.7194 48.1896 98.6353 48.1919 98.8684 48.9533ZM66.8546 58.9954L55.9395 67.7909V83.6073V99.4231L66.991 99.5402L78.0425 99.6573V74.8821C78.0425 61.2558 77.9808 50.1277 77.9061 50.1536C77.8313 50.179 72.8579 54.1578 66.8546 58.9954ZM34.4457 84.8353L23.4166 93.5599L23.5787 96.4912L23.7402 99.4231L34.7917 99.5477L45.8431 99.6717L45.8884 89.4537C45.9135 83.8334 45.996 78.6399 46.0718 77.9132C46.1477 77.1858 46.0445 76.4827 45.842 76.3506C45.6401 76.2185 40.5117 80.0364 34.4457 84.8353ZM61.7103 120.62C59.8226 125.458 58.1548 129.741 58.0052 130.138C57.8235 130.618 58.2797 130.859 59.374 130.859C60.848 130.859 61.1144 130.566 61.9957 127.975L62.977 125.091H66.2886H69.6003L70.569 127.975C71.4378 130.559 71.7069 130.859 73.1607 130.859C74.7751 130.859 74.7794 130.85 74.0601 128.984C73.6628 127.953 72.0147 123.671 70.3976 119.467C66.3803 109.026 66.2275 109.046 61.7103 120.62ZM113.243 112.522C109.682 113.841 108.059 116.612 108.059 121.37C108.059 127.765 110.7 130.859 116.157 130.859C119.443 130.859 122.256 130.132 122.24 129.287C122.211 127.71 121.294 127.385 118.661 128.015C115.28 128.825 113.376 128.129 111.881 125.538C110.008 122.29 110.741 117.36 113.367 115.541C114.483 114.768 115.477 114.643 118.177 114.935C121.048 115.246 121.633 115.155 121.926 114.347C122.372 113.121 122.215 112.981 119.699 112.364C117.05 111.714 115.309 111.757 113.243 112.522ZM0 121.668V130.935L1.50082 130.752C3.09878 130.559 3.11351 130.517 3.21175 125.838L3.27451 122.836L6.95833 122.666C10.3054 122.511 10.658 122.376 10.8168 121.197C10.9833 119.958 10.8195 119.899 7.19028 119.899H3.38912L3.17846 117.562C3.06222 116.277 3.07749 115.109 3.21175 114.967C3.34655 114.825 5.25723 114.708 7.45879 114.708C11.0968 114.708 11.4608 114.603 11.4608 113.555C11.4608 112.474 11.0968 112.401 5.73039 112.401H0V121.668ZM20.7386 121.63V130.859H22.3758H24.0131V121.63V112.401H22.3758H20.7386V121.63ZM34.9281 121.63V130.859H36.275C37.6214 130.859 37.6225 130.855 37.7758 124.15L37.9297 117.442L41.9563 124.15C45.2445 129.629 46.2203 130.859 47.2774 130.859H48.5719V121.63V112.401H47.2255C45.8857 112.401 45.8781 112.432 45.7247 118.696L45.5703 124.991L41.5912 118.696C38.3281 113.534 37.3709 112.401 36.2701 112.401H34.9281V121.63ZM84.0458 121.63V130.859H85.4101H86.7745L86.7783 124.081L86.7816 117.304L89.2582 121.341C90.6199 123.562 92.458 126.612 93.3426 128.119C94.5689 130.208 95.2762 130.859 96.3203 130.859H97.6896V121.63V112.401H96.3432C95.0012 112.401 94.9963 112.423 94.8424 118.848L94.6879 125.295L90.6565 118.848C87.4109 113.657 86.3739 112.401 85.3354 112.401H84.0458V121.63ZM132.072 121.63V130.859H137.529H142.987V129.417C142.987 128.006 142.898 127.975 138.864 127.975H134.741L134.907 125.235L135.074 122.495L138.484 122.323C141.418 122.175 141.895 121.998 141.895 121.053C141.895 120.108 141.418 119.931 138.484 119.783L135.074 119.611V117.304V114.997L139.03 114.827C142.539 114.677 142.987 114.53 142.987 113.529C142.987 112.485 142.583 112.401 137.529 112.401H132.072V121.63ZM67.9155 120.909C68.2577 122.087 68.1125 122.207 66.3454 122.207C64.0974 122.207 64.0985 122.21 65.3292 118.805L66.2597 116.23L66.8988 117.92C67.2508 118.85 67.7081 120.195 67.9155 120.909Z" fill="#535353"/>
</svg>
